# xmcd
#
# Track frame offsets:
#	150
#	38099
#	51434
#	67015
#	77552
#	88671
#	109030
#	110353
#	114941
#	119743
#	124581
#	129700
#	134567
#	139250
#	144066
#	148993
#	153984
#	159578
#	166960
#	180371
#	181144
#	183941
#	185938
#	187832
#	189833
#
# Disc length: 2577 seconds
#
# Revision: 0
# Processed by: cddbd v1.5.2PL0 Copyright (c) Steve Scherf et al.
# Submitted via: EasyCDDAExtractor 16.0.8.2
#
DISCID=630a0f19
DTITLE=Συλλογικός δίσκος - Μουσικές βιταμίνες
DYEAR=2004
DGENRE=Ποικίλη
TTITLE0=Άνευ ερμηνευτού - Sonata for two pianos, KV 448 [W.A. Mozart]
TTITLE1=Άνευ ερμηνευτού - Tarantella [Calabria]
TTITLE2=Άνευ ερμηνευτού - Air από την Ορχ. Σουίτα Νο 3 [J.S. Bach]
TTITLE3=Άνευ ερμηνευτού - Valse, ''Il bacio'' [Luigi Arditi, 1822-1903]
TTITLE4=Άνευ ερμηνευτού - Εμβατήριο ''Ευζωνάκι''
TTITLE5=Χορωδία - Kyrie από την Missa Papae Marcelli [G.P. Palestrina]
TTITLE6=Άνευ ερμηνευτού - Συμφωνία Νο 5, μέρος 1ο [L.V. Beethoven]
TTITLE7=Άνευ ερμηνευτού - Divertimento για ορχ. ενχόρδων 1 [W.A. Mozart]
TTITLE8=Άνευ ερμηνευτού - Divertimento για ορχ. ενχόρδων 2 [W.A. Mozart]
TTITLE9=Άνευ ερμηνευτού - Divertimento για ορχ. ενχόρδων 3 [W.A. Mozart]
TTITLE10=Άνευ ερμηνευτού - Divertimento για ορχ. ενχόρδων 4 [W.A. Mozart]
TTITLE11=Άνευ ερμηνευτού - Divertimento για ορχ. ενχόρδων 5 [W.A. Mozart]
TTITLE12=Άνευ ερμηνευτού - Divertimento για ορχ. ενχόρδων 6 [W.A. Mozart]
TTITLE13=Άνευ ερμηνευτού - Divertimento για ορχ. ενχόρδων 7 [W.A. Mozart]
TTITLE14=Χορωδία - Hymn to the Mother of God [Tavener]
TTITLE15=Άνευ ερμηνευτού - C. Estampes, ''Jardin sur la pluie'' [Debussy]
TTITLE16=Φυσικός ήχος - Νερό που κυλά στο ποτάμι [φυσικός ήχος]
TTITLE17=Φυσικός ήχος - Φουρτουνιασμένα κύματα της θάλασσας [φυσικός ήχος]
TTITLE18=Φυσικός ήχος - Βροχή-βροντές [φυσικός ήχος]
TTITLE19=Οικογένεια - Δημήτρη...-Ντι-ντι-ντι [παιχνιδίσματα]
TTITLE20=Οικογένεια - Νάανι-νάανι [νανούρισμα]
TTITLE21=Οικογένεια - ''Αυτό κάνει χεε-εε!'' [παιχνιδίσματα]
TTITLE22=Οικογένεια - ''Μολύβι θέλω!'' [παιχνιδίσματα]
TTITLE23=Παιδί - ''Ο μανάβης ο Λεωνίδας''
TTITLE24=Άνευ ερμηνευτού - Το cello που μιλάει
EXTD=
EXTT0=
EXTT1=
EXTT2=
EXTT3=
EXTT4=
EXTT5=
EXTT6=
EXTT7=
EXTT8=
EXTT9=
EXTT10=
EXTT11=
EXTT12=
EXTT13=
EXTT14=
EXTT15=
EXTT16=
EXTT17=
EXTT18=
EXTT19=
EXTT20=
EXTT21=
EXTT22=
EXTT23=
EXTT24=
PLAYORDER=
